<?xml version="1.0" encoding="utf-8"?>
<!-- Generator: Adobe Illustrator 25.4.1, SVG Export Plug-In . SVG Version: 6.00 Build 0)  -->
<svg version="1.1" id="_레이어_1" xmlns="http://www.w3.org/2000/svg" xmlns:xlink="http://www.w3.org/1999/xlink" x="0px"
	 y="0px" viewBox="0 0 778.9 288.6" style="enable-background:new 0 0 778.9 288.6;" xml:space="preserve">
<style type="text/css">
	.st0{fill:#FFFFFF;}
	.st1{fill:#FFFFFF;stroke:#FFFFFF;stroke-width:2.7031;stroke-miterlimit:10;}
	.st2{fill:#FBC200;}
</style>
<path class="st0" d="M286.2,71.4c0,1.2-0.7,1.9-2.2,1.9c-0.7,0-3-0.4-7.1-1.2c-7.6-1.5-13.9-2.3-18.8-2.3
	C246.6,73.2,236.6,80,227.8,90c-8.8,10-18.7,26.1-29.8,48.5c-17.2,34.2-39,54.5-65.7,60.7c5.6,0.8,10.4,1.2,14.6,1.2
	c13.1,0,23.9-4.1,32.8-12.5c8.5-8.1,15.7-16.6,21.3-25.7c0.7-1,1.1-1.5,1.5-1.5c0.4,0,0.7,0.1,0.7,0.4c0,1.1-4.1,6.6-12.2,16.5
	c-7.6,9.2-14.4,15.7-20.7,19.1c-6.2,3.6-13.9,5.2-22.8,5.2c-5.2,0-11.4-0.7-19-2.2c-4.5,1.5-9.8,2.2-15.7,2.2
	c-4.1,0-6.2-0.7-6.2-2.2c0-1.6,2.7-2.5,8.2-2.5c3.8,0,8.4,0.4,13.5,1.1c11-2.6,19.2-6.9,24.9-12.9c5.6-6,16.5-22.3,32.4-48.8h-40.8
	c-17,18.1-30.4,31.1-39.8,38.7c-22.1,18-43,26.9-62.5,26.9c-11.1,0-20.6-2.6-28.4-7.8S2.3,183,2.3,175.5c0-3.8,1.2-7.3,3.6-10
	c2.3-2.7,5.2-4.1,8.7-4.1c4.5,0,6.9,2.2,6.9,6.7c0,2.3-0.8,4.3-2.3,6c-1.5,1.6-3.4,2.5-5.5,2.5c-3.3,0-4.9-1.6-4.9-4.8l0.3-2.1
	c0.1-0.3,0.3-0.7,0.3-1.1c0-0.7-0.3-1.1-1-1.1c-0.7,0-1.4,0.8-2.1,2.6s-1.1,3.6-1.1,5.4c0,6.9,3.7,12.8,10.9,17.6
	c7.3,4.8,16.2,7.1,26.8,7.1c15.3,0,31.9-7.4,50.1-22.4c4.1-3.3,8.8-7.7,13.9-13.2c10.2-10.6,18.1-18.8,24.2-24.9l3.2-3.3h-20.6
	l1.2-1.9c6.7,0,13.7,0.1,20.9,0.3c20.7-23.1,40.8-39.8,60.3-50.6S236,68.1,257.8,68c5.1-1,9.8-1.5,14.2-1.5
	C281.4,66.8,286.3,68.3,286.2,71.4L286.2,71.4z M172.7,90.7c0,0.8-1.2,2.6-4,5.6c-7.3,8.2-14,12.4-20.5,12.4c-4.1,0-7.4-1.4-10-4.3
	c-2.6-2.9-3.8-6.6-3.8-11.3c0-4,2.3-10.3,7-19.2c2.2-4.1,3.3-7.4,3.3-10.2c0-3.6-1.9-6.6-5.9-9.1c-4-2.5-8.7-3.7-14.3-3.7
	c-16.2,0-31.2,6.2-45.1,18.7s-20.6,25.8-20.6,40.4c0,7.4,2.3,13.3,7,18c4.7,4.7,10.6,7,18,7c8,0,16.1-2.9,24.2-8.8
	c8.1-5.8,13.9-12.8,17.2-21c0.3-0.7,0.5-1.1,0.8-1.1c0.7,0,1,0.4,1,1.1c0,1.5-1.2,4.1-3.7,7.8c-2.5,3.8-5.1,7-7.7,9.5
	c-9.8,9.5-20.5,14.2-32.3,14.2c-8.1,0-14.6-2.5-19.4-7.4c-4.9-4.9-7.3-11.5-7.3-19.8c0-15,7.1-28.7,21.6-41.5s30-19.1,46.9-19.1
	c7.4,0,13.2,1.8,17.4,5.5c4.3,3.7,6.3,8.8,6.3,15.1c0,4.8-1.6,10.4-5.1,17c-3,6-4.5,10-4.5,12.2c0,5.2,3.2,7.8,9.3,7.8
	c7.1,0,14.4-5.2,22-15.8c0.7-0.8,1.1-1.2,1.6-1.2C172.4,89.7,172.7,90,172.7,90.7L172.7,90.7z M252.7,70.2
	c-18.4,1-35.6,6.2-51.4,15.9c-15.8,9.6-33.9,26-54.5,48.8H187c9.1-15.8,19.9-30,32.7-42.5C232.3,80,243.3,72.5,252.7,70.2
	L252.7,70.2z"/>
<path class="st0" d="M296.5,91.1c-26.5,42.2-43.3,69.1-50.1,80.8c-7,12-10.4,19.5-10.4,22.5c0,3.2,1.5,4.8,4.4,4.8
	c6.5,0,17.4-11.3,32.8-33.7c0.4-0.7,0.8-1.1,1.1-1.1c0.4,0,0.7,0.3,0.7,0.7c-0.1,0.3-0.4,0.8-1.1,1.6l-4.5,6.3
	c-13.3,18.5-23.2,27.8-29.7,27.8c-3.3,0-5.9-1.2-8-3.7c-2.1-2.5-3-5.6-3-9.3c0-3.8,1.2-8.2,3.8-13.2c-12.4,17.6-21.6,26.2-27.6,26.2
	c-3.7,0-6.9-1.6-9.5-4.8c-2.5-3.2-3.8-7.3-3.8-12.1c0-11.7,7.3-22.3,21.7-31.7c11.5-7.6,20.6-11.4,27.2-11.4c4.4,0,6.6,2.1,6.6,6.3
	c0,1.9-0.5,4.3-1.8,6.7L283,90.5c2.3,0.7,4.7,1.1,6.9,1.1C290.5,91.6,292.7,91.5,296.5,91.1L296.5,91.1z M245.4,148.1
	c0-3.7-1.8-5.6-5.2-5.6c-6.3,0-14.7,6.3-25.1,19.1c-10.4,12.6-15.7,22.9-15.7,30.6c0,4.7,1.9,7.1,5.8,7.1c5.6,0,15.4-9.8,29.1-29.4
	C241.7,159.2,245.4,152,245.4,148.1L245.4,148.1z"/>
<path class="st0" d="M328.5,165.3c0,0.3-0.7,1.1-1.9,2.7l-4.5,5.8c-14.7,18.1-27.2,27.1-37.6,27.1c-4.9,0-9.1-1.8-12.5-5.4
	c-3.3-3.6-5.1-8-5.1-13.5c0-12.8,8.9-23.9,26.7-33.7c9.3-5.1,16.9-7.6,22.8-7.6c2.5,0,4.7,0.8,6.5,2.3c1.8,1.5,2.7,3.4,2.7,5.6
	c0,5.1-3.3,9.3-10,13.1c-6.6,3.6-17.7,6.9-33.2,10c-4.8,7.3-7.3,13.3-7.3,18.3c0,6,3.3,9.1,9.9,9.1c11.1,0,24.9-10.9,41.1-32.7
	c0.8-1.1,1.5-1.6,2.2-1.6C328.4,164.9,328.5,165,328.5,165.3L328.5,165.3z M319.6,145.6c0-2.3-1.2-3.4-3.7-3.4
	c-3.7,0-8.7,2.6-14.8,7.8c-6,5.2-12.1,12-18,20.2c10.2-2.6,18.8-6.3,25.8-11.1C316,154.4,319.6,149.9,319.6,145.6z"/>
<path class="st0" d="M384,90.1c-29.7,49.5-47,78.5-51.9,87.1c-4.9,8.7-7.4,14.4-7.4,17.3c0,3.2,1.4,4.8,4,4.8
	c5.9,0,16.9-11.3,32.7-33.7c0.4-0.7,0.8-1.1,1.2-1.1c0.3,0.1,0.4,0.3,0.4,0.7c0,0.4-0.4,1-1.1,1.6l-4.5,6.3
	C344,191.8,334.1,201,327.7,201c-3,0-5.5-1.1-7.4-3.4c-1.9-2.3-2.9-5.2-2.9-8.8c0-3.8,0.8-7.7,2.7-11.3c1.8-3.7,8-14.2,18.4-31.6
	c12.8-21.3,23.6-39.7,32.3-55.4c2.1,0.5,4,0.8,5.6,0.8C379.4,91.4,381.8,91,384,90.1L384,90.1z"/>
<path class="st0" d="M416.7,165.3c0,0.3-0.7,1.1-1.9,2.7l-4.5,5.8c-14.7,18.1-27.2,27.1-37.6,27.1c-4.9,0-9.1-1.8-12.5-5.4
	c-3.4-3.6-5.1-8-5.1-13.5c0-12.8,8.9-23.9,26.7-33.7c9.3-5.1,16.9-7.6,22.8-7.6c2.5,0,4.7,0.8,6.5,2.3c1.8,1.5,2.7,3.4,2.7,5.6
	c0,5.1-3.3,9.3-10,13.1c-6.6,3.6-17.7,6.9-33.2,10c-4.8,7.3-7.3,13.3-7.3,18.3c0,6,3.3,9.1,9.9,9.1c11.1,0,24.9-10.9,41.1-32.7
	c0.8-1.1,1.5-1.6,2.2-1.6C416.6,164.9,416.7,165,416.7,165.3L416.7,165.3z M407.8,145.6c0-2.3-1.2-3.4-3.7-3.4
	c-3.7,0-8.7,2.6-14.8,7.8c-6,5.2-12.1,12-18,20.2c10.2-2.6,18.8-6.3,25.8-11.1C404.2,154.4,407.8,149.9,407.8,145.6L407.8,145.6z"/>
<path class="st1" d="M640,196.1c0,2.9-0.4,6-1.1,9.5c-0.8,3.4-1.5,5.2-2.2,5.2c-0.5,0-0.8-0.3-0.8-0.8c0-0.1,0-0.4,0.1-0.8
	c1.5-3.8,2.2-8.1,2.2-12.6c0-7-2.1-12.6-6.3-16.9c-4.1-4.3-9.6-6.3-16.5-6.3c-9.2,0-18.7,3-28.4,9.1c7.8,5.8,11.7,12.5,11.7,20.3
	c0,12.4-8.4,19.8-25.3,22.1c13.9,4.8,20.7,13.7,20.7,26.7c0,9.6-4.1,18-12.2,25.1s-17.7,10.7-28.6,10.7c-5.2,0-9.3-1.4-12.5-4.1
	c-3-2.7-4.7-6.3-4.7-11c0-7.1,3.3-14.2,9.8-21.2c6.6-7,13.1-10.4,19.8-10.4c3.7,0,6.7,1.1,9.1,3.4c2.3,2.3,3.6,5.2,3.6,8.9
	c0,2.2-0.7,4.8-2.1,8.1c-1.4,3.2-2.5,4.8-3.3,4.8c-0.7,0-1-0.3-1-0.7c0-0.3,0.1-0.5,0.3-1c2.9-4.3,4.4-8,4.4-11.4c0-3.2-1-5.8-3-7.7
	c-2.1-1.9-4.8-2.9-8.1-2.9c-6.3,0-12.4,3.3-18.4,9.9c-6,6.6-9.1,13.3-9.1,20.3c0,3.7,1.2,6.7,3.7,9.2c2.5,2.5,5.6,3.7,9.3,3.7
	c8.5,0,16.4-4.1,23.4-12.4c7.1-8.2,10.6-17.3,10.6-27.2c0-9.2-4.4-16.1-13.3-20.3l-4.8,0.5c-1.4,0.1-2.6,0.3-4,0.3
	c-4.3,0-6.3-0.7-6.3-2.1c0-1,1.8-1.5,5.2-1.5c2.5,0,5.8,0.5,9.9,1.5c5.8-1.8,10.3-4.9,13.7-9.3c3.4-4.4,5.1-9.6,5.1-15.4
	s-2.2-10.6-6.5-15.1c-12.2,9.3-23.6,25.1-34.3,47.5c-6.6,13.7-12.6,23.8-18.1,29.8c-5.4,5.9-12.9,11.4-22.8,16.2
	c-11.7,5.6-22,8.5-31.2,8.5c-7.4,0-13.6-1.6-18.5-5.1c-4.9-3.4-7.4-7.7-7.4-12.8c0-2.9,0.8-5.4,2.5-7.4c1.6-2.1,3.7-3,6-3
	c3.4,0,5.1,1.9,5.1,5.6c0,1.9-0.5,3.6-1.6,4.8c-1.1,1.4-2.5,2.1-4.3,2.1c-2.9,0-4.3-1.5-4.1-4.5c0-1.2,0-1.8-0.3-1.8
	c-0.8,0-1.4,1.5-1.4,4.4c0,4.7,2.3,8.5,6.9,11.5s10.3,4.5,17.2,4.5c12.2,0,23.2-4.5,33.1-13.5c4.3-3.8,8-8,11.1-12.2
	s10.4-15.1,21.8-32.4c5.5-8.2,12.1-16.8,19.9-25.3c7.7-8.5,14.2-14.7,19.4-18.3c-8.8-7.4-21.6-11.1-38.2-11.1
	c-23.5,0-44,8.5-61.3,25.4c-14.3,13.9-21.3,27.1-21.3,39.3c0,6.2,2.1,11.1,6,14.8s9.5,5.5,16.2,5.5c11.1,0,22.7-5.4,34.6-16.1
	c12-10.7,17.9-21.2,17.9-31.3c0-8.1-4.1-12.1-12.4-12.1c-8.2,0-17.2,4.5-26.7,13.9c-9.5,9.2-14.2,17.9-14.2,26
	c0,2.1,0.7,3.7,2.1,5.2c1.4,1.4,2.9,2.2,4.7,2.2c1,0.1,1.4,0.4,1.4,0.7c0,0.5-0.5,0.8-1.6,0.8c-2.6,0-4.9-1.2-6.7-3.6
	c-1.8-2.3-2.7-5.4-2.7-8.9c0-8.7,4.8-17,14.3-25.3c9.5-8.2,19.2-12.4,29.3-12.4c10,0,14.3,4.4,14.3,13.3c0,10.7-6,21.7-18.3,32.7
	c-12.2,11-24.2,16.5-36,16.5c-7.7,0-13.9-2.3-18.5-7s-7-10.9-7-18.7c0-15.8,8.9-30.1,26.7-43.1c17.7-13.1,37.4-19.5,58.9-19.5
	c16.2,0,30,3.7,41.2,10.9c10.2-6.3,20.1-9.5,29.5-9.5c7.4,0,13.5,2.2,18,6.7C637.8,182.9,640,188.8,640,196.1L640,196.1z"/>
<path class="st1" d="M654.3,256.8c0,0.4-1.6,2.5-4.9,6c-4.3,4.7-8.2,7-12,7c-4.3,0-6.3-2.5-6.3-7.4c0-1.5,0.3-3.6,1-5.9
	c-3.6,3-6.3,6-8.5,9.1c-2.2,3-6,9.1-11.4,18.4c-2.9-0.3-4.7-0.3-5.2-0.3c-0.3,0-1.9,0.1-5.1,0.3l13.7-22.3
	c6.9-11.1,10.3-18,10.3-20.7c0-1.5-0.7-2.3-1.9-2.3c-3.2,0-8.8,6-17,18c-0.5,0.8-1,1.1-1.4,1.1c-0.3,0-0.3-0.3-0.3-0.5
	c0-0.3,0.1-0.5,0.3-0.7l1.5-2.1c8.5-11.4,14.4-17.2,17.4-17.2c4.4,0,6.7,2.9,6.7,8.7c0,4.3-2.3,9.9-6.9,17c2.9-3.3,5.6-6,8.2-8.2
	c2.1-4.9,4.7-9.1,7.8-12.4c3.2-3.3,5.9-4.9,8.5-4.9c1.8,0,2.6,0.8,2.6,2.2c0,2.6-3.8,6.5-11.5,11.4c-1.2,0.8-3,1.9-5.5,3.4l-1,0.8
	c-0.8,2.6-1.1,4.7-1.1,6.3c0,4.7,1.8,7,5.2,7c4.4,0,9.1-3.6,14.2-10.9c1.1-1.2,1.8-1.8,2.1-1.8C654.1,256.2,654.4,256.4,654.3,256.8
	L654.3,256.8z"/>
<path class="st1" d="M703.6,256.7c0,0.8-1.6,3-4.9,6.2c-4.9,4.9-9.3,7.3-13.5,7.3c-1.8,0-3.3-0.3-4.5-1
	c-7.4,10.4-14.3,15.7-20.7,15.7c-3.3,0-6.2-1.4-8.5-4.1s-3.6-6-3.6-9.9c0-8.5,5.6-16.9,16.9-24.7c7.8-5.6,14.4-8.4,19.5-8.4
	c4.8,0,7.1,2.6,7.1,7.7c0,6.5-3.4,14.2-10.2,23.1c1.1,0.7,2.3,1,3.7,1c2.5,0,5.5-1.1,8.8-3.4s6-5.1,8.2-8.4c0.7-0.8,1.1-1.1,1.4-1.1
	C703.6,256.2,703.6,256.4,703.6,256.7L703.6,256.7z M690,245.4c0-4.5-2.1-6.7-6-6.7c-5.1,0-11.3,4.8-18.5,14.6
	c-7.3,9.6-10.9,17.9-10.9,24.5c0,3.8,1.8,5.8,5.5,5.8c6,0,12.5-4.9,19.6-14.8c-1.6-1.8-2.5-3.6-2.5-5.5c0-2.7,1.1-5.5,3.3-8.4
	c2.2-2.9,4.3-4.4,6.3-4.4c0.8,0,1.5,0.5,1.8,1.6C689.7,249.9,690.1,247.9,690,245.4L690,245.4z"/>
<path class="st1" d="M776.3,256.5c0,0.7-1.8,2.7-5.4,6.5c-4.8,5.1-9.1,7.6-12.6,7.6c-2.5,0-4.5-1.4-6.2-4
	c-4.9,6.9-8.9,11.5-12.1,14.2c-3.2,2.6-6.3,4-9.5,4c-2.9,0-5.2-1-7.1-2.9c-1.9-1.9-2.9-4.3-2.9-7c0-2.3,0.8-5.1,2.2-8.4
	c-8.4,12.2-15,18.4-19.6,18.4c-2.5,0-4.4-1-6-2.9s-2.5-4.3-2.5-7c0-3.2,1.6-7.6,4.9-13.2l13.9-23.5c2.2,0.4,3.8,0.5,4.9,0.5
	c1,0,2.7-0.1,5.5-0.5l-19,30.9c-3,4.8-4.5,8.4-4.5,10.6c0,2.5,1.1,3.7,3.4,3.7c2.5,0,6.2-2.7,11.3-8.4c5.1-5.6,9.9-12.5,14.8-20.9
	l9.3-16.1c3,0.3,4.9,0.4,5.6,0.4c1.9,0,3.6-0.1,4.8-0.4l-17.3,28.3c-3.8,6.3-5.8,10.6-5.8,13.1c0,2.7,1.4,4.1,4.3,4.1
	c5.6,0,12.5-5.9,20.7-18c-0.3-2.1-0.5-3.6-0.5-4.5c0-4.9,1.5-10.2,4.7-15.4c3-5.4,6-8,8.9-8c1.2,0,1.9,0.8,1.9,2.6
	c0,4.7-4.5,13.2-13.7,25.7c1.4,2.5,3.3,3.7,5.5,3.7c4.1,0,9.3-3.7,15.4-11.3c1.1-1.4,1.9-2.1,2.2-2.1
	C776,256.2,776.1,256.4,776.3,256.5L776.3,256.5z"/>
<path class="st2" d="M504.8,68.1c-4.5-3.4-10.4-1.8-14.7,0.4l4.8-5.9c4.7-6.9,8-14.6,9.6-22.8c1.8-9.2,2.1-19.2-0.8-28.3
	c-1.1-3.4-2.7-7-5.5-9.3c-0.5-0.4-2.9-1.6-3.2-2.2c1,2.3,5.4,12.6-13.1,18.1c-14,4.1-18.8,11.7-20.3,15c-2.3-1.8-4.8-3.3-7.7-4.8
	c-30.8-15-53.7-4.1-64,4.4c0,0,13.2-5.9,18,0.1c2.5,3.3,3.4,8,4.4,11.8c1.1,4.8,1.9,9.6,2.6,14.4c0.7,4.4,1.8,8.9,4.1,12.9
	c2.1,3.6,4.5,7,7.7,9.6c1.8,1.4,4,2.5,6.2,3c0,0-6,1.1-9.2,7.6c-3.2,6.5-14.3,5.2-14.3,5.2s4.3,8.5,19.6,5.8c0,0-2.7,12.4-8.4,18.3
	c0,0,9.2-0.8,16.2-3.7c7-2.9,17-7.8,23.4-22c0,0,9.2-0.3,13.7-3.8c0,0,5.5-3.3,6.7-10.9c1.1,0.4,2.3,0.5,3.4,0.1
	c2.3-0.8,3.6-3.6,2.7-5.9c-0.3-0.8-0.8-1.4-1.4-1.9c0.4-0.4,0.8-0.8,1.2-1.2c0.7-0.4,1.2-0.8,1.9-1.2c1,0,1.9-0.1,2.9,0
	c6.7,0.3,10.6,8.4,7,10.9c-1.5,1-4.9,2.2-4.1,3.4c0.8,1.2,2.2,0.5,2.2,0.5s8.4-5.6,1.5-13.1c-1.9-2.1-4.3-2.9-6.9-3.2
	c1.9-0.8,3.8-1.4,6.3-1.8c6.6-1,12,6.3,8.9,9.3c-1.2,1.2-4.5,3-3.4,4.1s2.3,0.1,2.3,0.1S512.9,74.2,504.8,68.1L504.8,68.1z
	 M498.5,11.1c0,0,3.4,4.9,1.5,8.9c-2.1,4-8.4,8.4-8.7,11.1C491.2,33.9,487.8,19.6,498.5,11.1L498.5,11.1z M452.2,55.5
	c-6.9-4.7-15.3-7.4-12.9-10.9c2.3-3.4,4.3-7.6,11.8-4c10,4.7,17.6,22.4,15.4,25.8S459,60.2,452.2,55.5z M463.3,72.4
	c-1.2,3.4-8.2-3.6-15.7-5.9s-15.7-2.6-14.4-6.2c1.2-3.4,3.3-6.6,11.1-5.5C454.5,56.3,464.5,69,463.3,72.4z M437.3,42.5
	c-1.4,3.2-3.4,4.3-6.7,2.7c-3.3-1.5-6.5-3.4-5.1-6.6s9.1-6.6,14.4-3C443,37.6,438.7,39.4,437.3,42.5L437.3,42.5z M418.6,42.3
	c-2.5-9.3-14.8-12-2.2-14.4c12.6-2.5,17.4,2.1,17.4,2.1C419.3,27.9,421.3,51.5,418.6,42.3L418.6,42.3z M421.1,54.1
	c1.1-2.7,8.4-6,13.5-3c3,1.8-1,3.4-2.1,6.2c-1.2,2.7-3,3.8-6.2,2.6C423,58.5,420,56.9,421.1,54.1L421.1,54.1z M423.2,70.2
	c-4.4-6-2.2-7,10.6-4.9c12.8,2.1,21.6,7.8,21.6,7.8S427.6,76.4,423.2,70.2L423.2,70.2z M424.6,74.9c10.7,4.3,31.3,1.5,31.3,1.5
	s-12.5,5.6-20.7,5.4C429.1,81.5,424.6,74.9,424.6,74.9L424.6,74.9z M431.3,114.7c-3.4-1.6,3.3-10,3.3-10c-0.5,8.1,6.7,7.8,6.7,7.8
	S434.7,116.4,431.3,114.7L431.3,114.7z M459.2,93.8c-0.3,4.8-11.3,14.2-13.7,15.4c-3.7,1.8-12-2.5-5.8-8.1
	c6.2-5.5,21.8-14.8,21.8-14.8S459.5,89,459.2,93.8L459.2,93.8z M427.3,98.2c-2.2-6.5,8.2-11,8.2-11c18.5,0.1,32.2-9.1,32.2-9.1
	C456.6,89.3,429.5,104.7,427.3,98.2L427.3,98.2z M476.6,70.5c0,0-4.5,4.7-6.6-1.2c-1.5-4.7-2.7-28.3-25.4-36.7
	c-6.7-2.5-14.8-7.8,0.4-3.7c4.8,1.2,10.2,3.6,15.5,7.1C482.8,50.8,476.6,70.5,476.6,70.5L476.6,70.5z M483.2,78.6
	c-1,0.3-1.9-0.1-2.2-1s0.1-1.9,1-2.2c0.8-0.3,1.9,0.1,2.2,1C484.6,77.2,484.2,78.2,483.2,78.6z M480.9,69.7c0,0,3.8-17.3-12.5-31.9
	c-3.2-2.7,3.6-12,7-12.9c6.2-1.6,9.8,0.8,12.5,4.4C490.6,33,491.3,57,480.9,69.7L480.9,69.7z M486.2,65.7c7.7-8.7,6.3-30.6,6.3-30.6
	s10.4-24.7,10.2-3.7C502.3,52.5,486.2,65.7,486.2,65.7L486.2,65.7z"/>
<path class="st0" d="M211.6,245.8c80.7,0,154.4,8.8,211.6,23.2c-42.6-20.6-121.5-34.5-211.6-34.5S42.6,248.4,0,269.2
	C57.2,254.6,130.9,245.8,211.6,245.8L211.6,245.8z"/>
<path class="st0" d="M451.8,134.8h4.5c2.6,0,4.3,0.1,5.2,0.4c1.2,0.3,2.3,1,3.2,2.1c0.8,1,1.2,2.3,1.2,3.8c0,1.5-0.4,2.9-1.2,3.8
	c-0.8,1-1.9,1.6-3.3,2.1c-1,0.3-2.9,0.4-5.8,0.4H454v10.9h-2.3L451.8,134.8L451.8,134.8z M454.1,137.1v8h3.8c1.5,0,2.6-0.1,3.4-0.4
	c0.7-0.3,1.2-0.8,1.6-1.4c0.4-0.7,0.7-1.4,0.7-2.2s-0.3-1.5-0.7-2.2s-1-1.1-1.6-1.4c-0.7-0.3-1.8-0.4-3.3-0.4H454.1L454.1,137.1z"/>
<path class="st0" d="M471.3,134.8h12.9v2.3h-10.7v7.3H484v2.3h-10.6v9.2H484v2.3h-12.8V134.8L471.3,134.8z"/>
<path class="st0" d="M489.1,134.8h4.5c2.5,0,4.3,0.1,5.1,0.3c1.4,0.3,2.5,1,3.3,2.1s1.2,2.3,1.2,3.8c0,1.2-0.3,2.3-0.8,3.3
	c-0.5,1-1.4,1.6-2.5,2.2c-1.1,0.5-2.6,0.8-4.4,0.8l8.1,10.9h-2.7l-8.1-10.9h-1.2v10.9h-2.5V134.8L489.1,134.8z M491.3,137.1v8h3.8
	c1.5,0,2.6-0.1,3.3-0.4s1.2-0.8,1.6-1.4c0.4-0.7,0.5-1.4,0.5-2.2s-0.3-1.5-0.7-2.2s-1-1.1-1.6-1.4c-0.7-0.3-1.8-0.4-3.3-0.4H491.3
	L491.3,137.1z"/>
<path class="st0" d="M507.8,158.1l3.3-23.4h0.4l9.2,19.1l9.1-19.1h0.4l3.3,23.4h-2.2l-2.2-16.8l-8,16.8h-0.5l-8.1-16.9l-2.2,16.9
	H507.8L507.8,158.1z"/>
<path class="st0" d="M547.9,134.8l10.6,23.4H556l-3.6-7.7h-9.8l-3.6,7.7h-2.5l10.7-23.4H547.9L547.9,134.8z M547.7,139.7l-3.8,8.5
	h7.7L547.7,139.7L547.7,139.7z"/>
<path class="st0" d="M562.8,158.1v-23.4h0.5l15.1,17.9v-17.9h2.2v23.4h-0.5l-15-17.7v17.7H562.8z"/>
<path class="st0" d="M587,134.8h12.9v2.3h-10.7v7.3h10.6v2.3h-10.6v9.2h10.6v2.3h-12.9L587,134.8L587,134.8z"/>
<path class="st0" d="M604.5,158.1v-23.4h0.5l15.1,17.9v-17.9h2.2v23.4h-0.5l-15-17.7v17.7H604.5z"/>
<path class="st0" d="M626.4,137.1v-2.3h12.4v2.3h-5.1v21h-2.3v-21H626.4z"/>
<path class="st0" d="M651.4,158.1l3.3-23.4h0.4l9.2,19.1l9.1-19.1h0.4l3.3,23.4h-2.2l-2.2-16.8l-8,16.8h-0.5l-8.1-16.9l-2.2,16.9
	H651.4L651.4,158.1z"/>
<path class="st0" d="M691.4,134.8l10.6,23.4h-2.5l-3.6-7.7h-9.8l-3.6,7.7h-2.5l10.7-23.4H691.4z M691.1,139.7l-3.8,8.5h7.7
	L691.1,139.7L691.1,139.7z"/>
<path class="st0" d="M706.4,134.8h2.3v8.8l9.1-8.8h3l-10.9,10.4l11.7,12.9h-3l-9.9-10.9v10.9h-2.3
	C706.4,158.1,706.4,134.8,706.4,134.8z"/>
<path class="st0" d="M725.7,134.8h12.9v2.3h-10.7v7.3h10.6v2.3h-10.6v9.2h10.6v2.3h-12.9v-23.5H725.7z"/>
<path class="st0" d="M743.4,134.8h2.3v14.2c0,1.6,0,2.7,0.1,3.2c0.1,1,0.4,1.6,0.8,2.3s1,1.1,1.9,1.5c0.8,0.4,1.6,0.7,2.6,0.7
	c0.8,0,1.5-0.1,2.2-0.5c0.7-0.3,1.2-0.8,1.8-1.4c0.4-0.5,0.8-1.2,1-2.1c0.1-0.5,0.3-1.8,0.3-3.7v-14.2h2.3v14.2
	c0,2.1-0.1,3.7-0.5,5.1c-0.4,1.4-1.2,2.5-2.3,3.3c-1.2,1-2.6,1.4-4.3,1.4c-1.8,0-3.4-0.4-4.7-1.4c-1.2-0.8-2.2-2.1-2.6-3.6
	c-0.3-1-0.4-2.5-0.4-4.9L743.4,134.8L743.4,134.8z"/>
<path class="st0" d="M764.7,134.8h4.5c2.6,0,4.3,0.1,5.2,0.4c1.2,0.3,2.3,1,3.2,2.1c0.8,1,1.2,2.3,1.2,3.8c0,1.5-0.4,2.9-1.2,3.8
	c-0.8,1-1.9,1.6-3.3,2.1c-1,0.3-2.9,0.4-5.8,0.4h-1.6v10.9h-2.3L764.7,134.8L764.7,134.8z M767.1,137.1v8h3.8c1.5,0,2.6-0.1,3.4-0.4
	c0.7-0.3,1.2-0.8,1.6-1.4c0.4-0.7,0.7-1.4,0.7-2.2s-0.3-1.5-0.7-2.2s-1-1.1-1.6-1.4c-0.7-0.3-1.8-0.4-3.3-0.4H767.1L767.1,137.1z"/>
</svg>
