<svg id="_레이어_1" data-name=" 레이어 1" xmlns="http://www.w3.org/2000/svg" viewBox="0 0 778.9 288.65"><defs><style>.cls-1,.cls-2{fill:#fff;}.cls-2{stroke:#fff;stroke-miterlimit:10;stroke-width:2.7px;}.cls-3{fill:#fbc200;}</style></defs><path class="cls-1" d="M286.2,71.45c0,1.23-.69,1.92-2.2,1.92a65.78,65.78,0,0,1-7.15-1.24A100.67,100.67,0,0,0,258,69.8C246.63,73.23,236.6,80,227.8,90S209.12,116.1,198,138.5c-17.18,34.21-39,54.54-65.68,60.72a101.44,101.44,0,0,0,14.57,1.24c13.05,0,23.9-4.12,32.83-12.5a131.33,131.33,0,0,0,21.3-25.7c.69-1,1.1-1.51,1.51-1.51s.69.14.69.42c0,1.09-4.12,6.59-12.23,16.48-7.56,9.21-14.43,15.67-20.75,19.1S156.36,202,147.43,202a97.83,97.83,0,0,1-19-2.2A49.68,49.68,0,0,1,112.8,202c-4.12,0-6.18-.69-6.18-2.2s2.75-2.47,8.24-2.47a103.34,103.34,0,0,1,13.47,1.1c11-2.61,19.23-6.87,24.87-12.92s16.48-22.25,32.42-48.77h-40.8c-17,18.14-30.37,31-39.85,38.74q-33.18,27-62.51,26.93-16.7,0-28.45-7.83C6.18,189.33,2.34,183,2.34,175.45a15.18,15.18,0,0,1,3.57-10,10.93,10.93,0,0,1,8.65-4.12c4.54,0,6.87,2.2,6.87,6.74a9,9,0,0,1-2.33,6,7.32,7.32,0,0,1-5.5,2.47c-3.3,0-4.94-1.65-4.94-4.81l.27-2.06a2.51,2.51,0,0,0,.28-1.1c0-.68-.28-1.09-1-1.09s-1.37.82-2.06,2.61a15,15,0,0,0-1.1,5.35c0,6.87,3.71,12.78,10.86,17.59s16.21,7.15,26.79,7.15c15.25,0,31.88-7.42,50.15-22.4a131.07,131.07,0,0,0,13.88-13.19c10.16-10.58,18.13-18.82,24.18-24.87l3.16-3.3H113.49l1.24-1.92c6.73,0,13.74.14,20.88.28,20.75-23.09,40.81-39.85,60.32-50.57A128.32,128.32,0,0,1,257.75,68a76.72,76.72,0,0,1,14.16-1.51c9.48.27,14.42,1.79,14.29,5ZM172.71,90.68c0,.83-1.24,2.61-4,5.63-7.28,8.25-14,12.37-20.47,12.37a12.78,12.78,0,0,1-10-4.26c-2.61-2.88-3.85-6.59-3.85-11.27,0-4,2.34-10.3,7-19.23,2.2-4.12,3.3-7.42,3.3-10.17,0-3.57-1.93-6.59-5.91-9.07A26.36,26.36,0,0,0,124.48,51c-16.21,0-31.19,6.19-45.07,18.69s-20.6,25.83-20.6,40.39c0,7.42,2.33,13.33,7,18s10.58,7,18,7c8,0,16.08-2.89,24.18-8.79s13.88-12.78,17.18-21c.27-.69.55-1.1.82-1.1.69,0,1,.41,1,1.1,0,1.51-1.23,4.12-3.71,7.83a51.44,51.44,0,0,1-7.69,9.48c-9.76,9.48-20.47,14.15-32.29,14.15q-12.15,0-19.37-7.42c-5-4.95-7.28-11.54-7.28-19.79,0-15,7.14-28.71,21.57-41.49s29.95-19.1,46.85-19.1c7.42,0,13.19,1.79,17.45,5.5s6.32,8.79,6.32,15.11c0,4.81-1.65,10.44-5.08,17-3,6-4.54,10-4.54,12.23,0,5.22,3.16,7.83,9.34,7.83,7.15,0,14.43-5.22,22-15.8.69-.83,1.1-1.24,1.65-1.24a1.08,1.08,0,0,1,.55,1.1Zm80-20.47a106.9,106.9,0,0,0-51.39,15.94c-15.8,9.61-33.93,26-54.54,48.77H187a193.86,193.86,0,0,1,32.7-42.45q19-18.77,33-22.26Z"/><path class="cls-1" d="M296.5,91.09q-39.78,63.27-50.15,80.79c-7,12-10.44,19.51-10.44,22.54s1.51,4.8,4.4,4.8c6.45,0,17.44-11.26,32.83-33.66.42-.68.83-1.1,1.1-1.1a.66.66,0,0,1,.69.69,8.19,8.19,0,0,1-1.1,1.65l-4.53,6.32c-13.33,18.55-23.22,27.75-29.68,27.75a9.81,9.81,0,0,1-8-3.71,14.13,14.13,0,0,1-3-9.34c0-3.85,1.23-8.24,3.84-13.19-12.36,17.59-21.57,26.24-27.61,26.24a12,12,0,0,1-9.48-4.81A19.23,19.23,0,0,1,191.53,184c0-11.68,7.28-22.26,21.71-31.74,11.54-7.55,20.61-11.4,27.2-11.4,4.4,0,6.6,2.06,6.6,6.32a15.37,15.37,0,0,1-1.79,6.73L283,90.54a24.53,24.53,0,0,0,6.87,1.1c.54,0,2.74-.13,6.59-.55Zm-51.11,57c0-3.71-1.79-5.63-5.22-5.63-6.32,0-14.7,6.32-25.15,19.1s-15.66,22.94-15.66,30.64c0,4.67,1.92,7.14,5.77,7.14,5.64,0,15.39-9.75,29.13-29.4q11.13-16.08,11.13-21.85Z"/><path class="cls-1" d="M328.51,165.29a13.79,13.79,0,0,1-1.92,2.75l-4.53,5.77c-14.71,18.13-27.21,27.06-37.65,27.06a16.58,16.58,0,0,1-12.5-5.36,19,19,0,0,1-5.09-13.46c0-12.78,8.93-23.91,26.66-33.66,9.34-5.09,16.9-7.56,22.81-7.56a9.79,9.79,0,0,1,6.45,2.34,7.2,7.2,0,0,1,2.75,5.63c0,5.08-3.3,9.34-10,13s-17.72,6.87-33.25,10c-4.81,7.28-7.28,13.33-7.28,18.28q0,9.06,9.89,9.06c11.13,0,24.87-10.85,41.08-32.7.83-1.1,1.51-1.64,2.2-1.64a.36.36,0,0,1,.41.41Zm-8.93-19.65c0-2.34-1.23-3.44-3.71-3.44q-5.56,0-14.84,7.84a115.31,115.31,0,0,0-18,20.19c10.16-2.61,18.82-6.32,25.83-11.13S319.58,149.9,319.58,145.64Z"/><path class="cls-1" d="M384,90.13q-44.52,74.19-51.93,87.11t-7.42,17.31c0,3.16,1.37,4.81,4,4.81,5.91,0,16.9-11.27,32.7-33.66.41-.69.83-1.1,1.24-1.1a.65.65,0,0,1,.41.69c0,.41-.41,1-1.1,1.65l-4.53,6.32C344,191.8,334.15,201,327.69,201a9.13,9.13,0,0,1-7.42-3.43,13.34,13.34,0,0,1-2.89-8.8,23.54,23.54,0,0,1,2.75-11.26c1.79-3.71,8-14.16,18.41-31.61,12.78-21.29,23.64-39.7,32.29-55.37a22.35,22.35,0,0,0,5.63.83A21.13,21.13,0,0,0,384,90.13Z"/><path class="cls-1" d="M416.72,165.29A14.33,14.33,0,0,1,414.8,168l-4.54,5.77c-14.7,18.13-27.2,27.06-37.64,27.06a16.62,16.62,0,0,1-12.51-5.36c-3.43-3.57-5.08-8-5.08-13.46,0-12.78,8.93-23.91,26.66-33.66,9.34-5.09,16.9-7.56,22.8-7.56a9.82,9.82,0,0,1,6.46,2.34,7.2,7.2,0,0,1,2.75,5.63c0,5.08-3.3,9.34-10,13s-17.72,6.87-33.25,10c-4.81,7.28-7.28,13.33-7.28,18.28q0,9.06,9.89,9.06c11.13,0,24.87-10.85,41.08-32.7.83-1.1,1.51-1.64,2.2-1.64a.36.36,0,0,1,.41.41Zm-8.93-19.65c0-2.34-1.24-3.44-3.71-3.44q-5.56,0-14.84,7.84a115.74,115.74,0,0,0-18,20.19c10.17-2.61,18.83-6.32,25.83-11.13,7.15-4.67,10.72-9.2,10.72-13.46Z"/><path class="cls-2" d="M640,196.06a48.72,48.72,0,0,1-1.1,9.48c-.82,3.44-1.51,5.23-2.2,5.23a.73.73,0,0,1-.82-.83,2.34,2.34,0,0,1,.14-.82,34.48,34.48,0,0,0,2.19-12.64c0-7-2.06-12.64-6.32-16.9s-9.61-6.32-16.48-6.32q-13.81,0-28.44,9.06c7.83,5.77,11.67,12.51,11.67,20.34,0,12.36-8.38,19.78-25.28,22.12,13.88,4.81,20.75,13.74,20.75,26.65,0,9.62-4.12,18-12.23,25.15a42,42,0,0,1-28.58,10.71c-5.22,0-9.34-1.37-12.5-4.12a14.09,14.09,0,0,1-4.67-11c0-7.14,3.3-14.15,9.75-21.16s13.06-10.44,19.79-10.44a12.22,12.22,0,0,1,9.07,3.44A12,12,0,0,1,578.3,253a21.94,21.94,0,0,1-2.06,8.1c-1.38,3.16-2.47,4.81-3.3,4.81s-1-.27-1-.69a3.75,3.75,0,0,1,.27-1c2.89-4.26,4.4-8,4.4-11.4a10.07,10.07,0,0,0-3-7.7,11.5,11.5,0,0,0-8.11-2.88c-6.32,0-12.36,3.3-18.41,9.89S538,265.45,538,272.46a12.42,12.42,0,0,0,3.71,9.2,12.78,12.78,0,0,0,9.35,3.71c8.51,0,16.35-4.12,23.35-12.36S585,255.69,585,245.8c0-9.2-4.39-16.07-13.33-20.33l-4.8.55c-1.38.13-2.61.27-4,.27-4.26,0-6.32-.69-6.32-2.06,0-1,1.79-1.51,5.22-1.51a47,47,0,0,1,9.89,1.51,27.14,27.14,0,0,0,13.74-9.34,24.39,24.39,0,0,0,5.09-15.39c0-5.77-2.2-10.58-6.46-15.11-12.23,9.34-23.63,25.14-34.35,47.53-6.59,13.74-12.64,23.77-18.14,29.82s-12.91,11.4-22.8,16.21c-11.68,5.64-22,8.52-31.19,8.52-7.42,0-13.6-1.65-18.55-5.08s-7.42-7.7-7.42-12.78a11.49,11.49,0,0,1,2.47-7.42,7.48,7.48,0,0,1,6.05-3c3.43,0,5.08,1.92,5.08,5.63a7.06,7.06,0,0,1-1.65,4.81,5.15,5.15,0,0,1-4.26,2.06q-4.32,0-4.12-4.53c0-1.24,0-1.79-.27-1.79-.83,0-1.38,1.51-1.38,4.4,0,4.67,2.34,8.51,6.87,11.54s10.31,4.53,17.18,4.53c12.23,0,23.22-4.53,33.11-13.46a83.83,83.83,0,0,0,11.13-12.23c3.16-4.26,10.44-15.11,21.85-32.43a207.43,207.43,0,0,1,19.92-25.28c7.69-8.52,14.15-14.7,19.37-18.27-8.79-7.42-21.57-11.13-38.2-11.13q-35.24,0-61.27,25.42c-14.29,13.87-21.3,27.06-21.3,39.29,0,6.19,2.06,11.13,6.05,14.84s9.48,5.5,16.21,5.5q16.69,0,34.62-16.08c12-10.71,17.86-21.16,17.86-31.32,0-8.11-4.12-12.09-12.36-12.09s-17.18,4.53-26.66,13.87-14.15,17.86-14.15,26a7.39,7.39,0,0,0,2.06,5.22,6.52,6.52,0,0,0,4.67,2.2c1,.14,1.38.41,1.38.69,0,.55-.55.82-1.65.82a8.36,8.36,0,0,1-6.73-3.57,14.39,14.39,0,0,1-2.75-8.93c0-8.66,4.81-17,14.29-25.28s19.23-12.37,29.26-12.37,14.29,4.4,14.29,13.33c0,10.72-6,21.71-18.27,32.7s-24.18,16.49-36,16.49q-11.54,0-18.55-7c-4.67-4.67-7-10.86-7-18.69,0-15.8,8.94-30.09,26.66-43.14a97,97,0,0,1,58.94-19.51c16.22,0,29.95,3.71,41.22,10.86,10.17-6.33,20.06-9.49,29.54-9.49,7.42,0,13.47,2.2,18,6.74s6.87,10.3,6.87,17.58Z"/><path class="cls-2" d="M654.28,256.79c0,.42-1.65,2.48-4.95,6q-6.39,7-12,7c-4.26,0-6.32-2.48-6.32-7.42a21.5,21.5,0,0,1,1-5.91,51.37,51.37,0,0,0-8.52,9.07c-2.2,3-6,9.06-11.4,18.41-2.89-.28-4.67-.28-5.22-.28-.28,0-1.93.14-5.09.28l13.74-22.26c6.87-11.13,10.31-18,10.31-20.75,0-1.51-.69-2.33-1.93-2.33-3.16,0-8.79,6-17,18-.55.82-1,1.09-1.38,1.09s-.27-.27-.27-.54a1.09,1.09,0,0,1,.27-.69l1.52-2.06c8.51-11.41,14.42-17.18,17.44-17.18,4.4,0,6.74,2.89,6.74,8.66,0,4.26-2.34,9.89-6.87,17a77.11,77.11,0,0,1,8.24-8.25,39.65,39.65,0,0,1,7.83-12.36c3.16-3.3,5.91-5,8.52-5,1.79,0,2.61.82,2.61,2.2,0,2.61-3.85,6.46-11.54,11.4-1.24.83-3,1.93-5.5,3.44l-1,.82a21.11,21.11,0,0,0-1.1,6.32c0,4.67,1.79,7,5.22,7,4.4,0,9.07-3.57,14.16-10.86,1.1-1.23,1.78-1.78,2.06-1.78.27.27.55.41.41.82Z"/><path class="cls-2" d="M703.6,256.66c0,.82-1.64,3-4.94,6.18-4.95,4.94-9.34,7.28-13.47,7.28a9.2,9.2,0,0,1-4.53-1c-7.42,10.44-14.29,15.66-20.75,15.66a10.87,10.87,0,0,1-8.52-4.12,14.86,14.86,0,0,1-3.57-9.89c0-8.52,5.63-16.9,16.9-24.73,7.83-5.64,14.43-8.39,19.51-8.39,4.81,0,7.15,2.62,7.15,7.7,0,6.46-3.44,14.15-10.17,23.08a6.77,6.77,0,0,0,3.71,1c2.47,0,5.49-1.1,8.79-3.43a32.05,32.05,0,0,0,8.25-8.38c.68-.83,1.09-1.1,1.37-1.1.27-.28.27-.14.27.14ZM690,245.39c0-4.53-2.06-6.73-6-6.73-5.09,0-11.27,4.81-18.55,14.56s-10.86,17.86-10.86,24.46c0,3.84,1.79,5.77,5.5,5.77,6.05,0,12.5-4.95,19.65-14.84a8,8,0,0,1-2.48-5.5c0-2.74,1.1-5.49,3.3-8.38s4.26-4.39,6.32-4.39a1.87,1.87,0,0,1,1.79,1.64,11.88,11.88,0,0,0,1.37-6.59Z"/><path class="cls-2" d="M776.29,256.52c0,.69-1.79,2.75-5.36,6.46-4.81,5.08-9.07,7.55-12.64,7.55-2.48,0-4.54-1.37-6.18-4-5,6.87-8.94,11.54-12.1,14.15s-6.32,4-9.48,4a9.85,9.85,0,0,1-10-9.89c0-2.33.83-5.08,2.2-8.38-8.38,12.23-15,18.41-19.65,18.41a7.55,7.55,0,0,1-6-2.88,10.41,10.41,0,0,1-2.47-7q0-4.74,4.94-13.19l13.88-23.5a27.17,27.17,0,0,0,4.95.55,39.82,39.82,0,0,0,5.49-.55l-19,30.92c-3,4.81-4.53,8.38-4.53,10.58,0,2.47,1.1,3.71,3.43,3.71s6.18-2.75,11.27-8.38a129.1,129.1,0,0,0,14.84-20.89l9.34-16.07c3,.27,4.95.41,5.63.41a23.45,23.45,0,0,0,4.81-.41l-17.31,28.3c-3.85,6.32-5.77,10.58-5.77,13,0,2.75,1.37,4.13,4.26,4.13,5.63,0,12.5-5.91,20.75-18-.28-2.06-.55-3.58-.55-4.54a29.77,29.77,0,0,1,4.67-15.39c3-5.35,6-8,8.93-8,1.23,0,1.92.83,1.92,2.62,0,4.67-4.53,13.19-13.74,25.69,1.38,2.47,3.3,3.71,5.5,3.71,4.12,0,9.34-3.71,15.39-11.27,1.1-1.37,1.92-2.06,2.19-2.06s.28,0,.42.14Z"/><path class="cls-3" d="M504.79,68.15c-4.53-3.44-10.44-1.79-14.7.41l4.81-5.91a62.17,62.17,0,0,0,9.62-22.81c1.78-9.2,2.06-19.23-.83-28.3-1.1-3.43-2.74-7-5.49-9.34C497.65,1.79,495.31.55,495,0c1,2.34,5.36,12.64-13.06,18.14-14,4.12-18.82,11.67-20.33,15A53.28,53.28,0,0,0,454,28.3c-30.78-15-53.73-4.12-64,4.4,0,0,13.19-5.91,18,.14,2.47,3.3,3.43,8,4.4,11.81,1.09,4.81,1.92,9.62,2.61,14.43A36.25,36.25,0,0,0,419.06,72a34.89,34.89,0,0,0,7.69,9.61,17.31,17.31,0,0,0,6.18,3,13.93,13.93,0,0,0-9.2,7.55c-3.16,6.46-14.29,5.22-14.29,5.22s4.26,8.52,19.65,5.77c0,0-2.75,12.37-8.38,18.28,0,0,9.2-.83,16.21-3.71s17-7.83,23.36-22c0,0,9.2-.27,13.74-3.84a16.14,16.14,0,0,0,6.73-10.86,4.89,4.89,0,0,0,3.43.14,4.69,4.69,0,0,0,2.75-5.91,4.89,4.89,0,0,0-1.37-1.92l1.23-1.24c.69-.41,1.24-.82,1.93-1.23a19.77,19.77,0,0,1,2.88,0c6.73.27,10.58,8.38,7,10.85-1.51,1-4.95,2.2-4.12,3.44a1.73,1.73,0,0,0,2.2.55s8.38-5.64,1.51-13.06a10.38,10.38,0,0,0-6.87-3.16,26.34,26.34,0,0,1,6.32-1.78c6.59-1,12,6.32,8.93,9.34-1.24,1.24-4.54,3-3.44,4.12a1.78,1.78,0,0,0,2.34.14s7.42-7.15-.69-13.19Zm-6.32-57s3.44,4.95,1.51,8.93-8.38,8.38-8.65,11.13-3.57-11.54,7.14-20.06Zm-46.3,44.38c-6.87-4.67-15.25-7.42-12.92-10.86s4.26-7.55,11.82-4c10,4.67,17.59,22.39,15.39,25.83S459,60.18,452.17,55.51Zm11.13,16.9c-1.24,3.43-8.24-3.57-15.66-5.91S432,63.89,433.21,60.32s3.3-6.6,11.13-5.5C454.51,56.33,464.54,69,463.3,72.41Zm-26-29.95c-1.37,3.16-3.43,4.25-6.73,2.74s-6.46-3.43-5.08-6.59,9.06-6.6,14.42-3c3,2.06-1.23,3.84-2.61,6.87Zm-18.68-.14c-2.48-9.34-14.84-12-2.2-14.43S433.9,30,433.9,30c-14.57-2.06-12.64,21.57-15.25,12.37Zm2.47,11.81c1.1-2.74,8.38-6,13.46-3,3,1.79-1,3.44-2.06,6.18s-3,3.85-6.18,2.61-6.32-3-5.22-5.77Zm2.06,16.08c-4.4-6-2.2-7,10.58-4.95a60.54,60.54,0,0,1,21.57,7.83s-27.75,3.3-32.15-2.88Zm1.37,4.67c10.72,4.26,31.33,1.51,31.33,1.51s-12.5,5.64-20.75,5.36c-6-.27-10.58-6.87-10.58-6.87Zm6.74,39.85c-3.44-1.65,3.29-10,3.29-10-.55,8.1,6.74,7.83,6.74,7.83s-6.6,3.84-10,2.2Zm27.89-20.89c-.28,4.81-11.27,14.15-13.74,15.39-3.71,1.79-12-2.47-5.77-8.11s21.84-14.84,21.84-14.84a14.79,14.79,0,0,0-2.33,7.56Zm-31.88,4.4c-2.2-6.46,8.25-11,8.25-11a61.9,61.9,0,0,0,32.15-9.07c-11.13,11.13-38.2,26.52-40.4,20.06Zm49.33-27.76s-4.54,4.68-6.6-1.23c-1.51-4.67-2.75-28.31-25.42-36.69-6.73-2.47-14.84-7.83.42-3.71A51.86,51.86,0,0,1,460.55,36c22.26,14.84,16.08,34.48,16.08,34.48Zm6.59,8.11a1.74,1.74,0,0,1-2.2-1,1.7,1.7,0,1,1,3.16-1.24A1.61,1.61,0,0,1,483.22,78.59Zm-2.33-8.93s3.84-17.31-12.51-31.88c-3.16-2.74,3.57-12,7-12.91,6.18-1.65,9.75.82,12.5,4.4s3.44,27.75-7,40.39Zm5.35-4C493.94,57,492.56,35,492.56,35S503,10.3,502.73,31.33s-16.49,34.35-16.49,34.35Z"/><path class="cls-1" d="M211.59,245.8c80.65,0,154.43,8.79,211.59,23.22-42.59-20.61-121.46-34.49-211.59-34.49S42.59,248.41,0,269.16c57.16-14.57,130.94-23.36,211.59-23.36Z"/><path class="cls-1" d="M451.76,134.79h4.53a21.26,21.26,0,0,1,5.22.41,5.3,5.3,0,0,1,3.16,2.06,6.58,6.58,0,0,1,0,7.69,6.76,6.76,0,0,1-3.29,2.06,25.24,25.24,0,0,1-5.78.42H454v10.85h-2.34l.14-23.49Zm2.33,2.33v8h3.85a11.32,11.32,0,0,0,3.44-.41A4.1,4.1,0,0,0,463,143.3a3.84,3.84,0,0,0,0-4.39,3.23,3.23,0,0,0-1.64-1.38,9.75,9.75,0,0,0-3.3-.41Z"/><path class="cls-1" d="M471.27,134.79h12.91v2.33H473.47v7.28h10.58v2.34H473.47v9.2h10.58v2.34H471.27V134.79Z"/><path class="cls-1" d="M489.13,134.79h4.53a35.94,35.94,0,0,1,5.09.27,5.23,5.23,0,0,1,3.29,2.06,6.12,6.12,0,0,1,1.24,3.85,6.57,6.57,0,0,1-.82,3.3,5.56,5.56,0,0,1-2.48,2.19,10,10,0,0,1-4.39.83l8.1,10.85H501l-8.11-10.85H491.6v10.85h-2.47V134.79Zm2.2,2.33v8h3.84a9.67,9.67,0,0,0,3.3-.41,4.06,4.06,0,0,0,1.65-1.38,4,4,0,0,0,.55-2.19,4.06,4.06,0,0,0-.69-2.2,3.21,3.21,0,0,0-1.65-1.38,9.65,9.65,0,0,0-3.29-.41Z"/><path class="cls-1" d="M507.82,158.14l3.29-23.35h.41l9.21,19.09,9.07-19.09h.41l3.3,23.35h-2.2l-2.2-16.76-8,16.76h-.55l-8.1-16.9-2.2,16.9Z"/><path class="cls-1" d="M547.93,134.79l10.58,23.35H556l-3.57-7.69h-9.76l-3.57,7.69h-2.47l10.72-23.35Zm-.27,4.94-3.85,8.52h7.7l-3.85-8.52Z"/><path class="cls-1" d="M562.77,158.14V134.79h.55l15.12,17.86V134.79h2.2v23.35h-.55l-15-17.72v17.72Z"/><path class="cls-1" d="M587,134.79h12.91v2.33H589.15v7.28h10.58v2.34H589.15v9.2h10.58v2.34H586.82l.14-23.49Z"/><path class="cls-1" d="M604.54,158.14V134.79h.55l15.12,17.86V134.79h2.19v23.35h-.55l-15-17.72v17.72Z"/><path class="cls-1" d="M626.39,137.12v-2.33h12.36v2.33h-5.08v21h-2.34v-21Z"/><path class="cls-1" d="M651.39,158.14l3.3-23.35h.41l9.21,19.09,9.07-19.09h.41l3.3,23.35h-2.2l-2.2-16.76-8,16.76h-.55l-8.1-16.9-2.2,16.9Z"/><path class="cls-1" d="M691.38,134.79,702,158.14h-2.48l-3.57-7.69h-9.75l-3.58,7.69h-2.47l10.72-23.35Zm-.28,4.94-3.85,8.52H695l-3.85-8.52Z"/><path class="cls-1" d="M706.35,134.79h2.34v8.79l9.07-8.79h3l-10.86,10.44,11.68,12.91h-3l-9.89-10.85v10.85h-2.34Z"/><path class="cls-1" d="M725.73,134.79h12.91v2.33H727.92v7.28H738.5v2.34H727.92v9.2H738.5v2.34H725.59V134.79Z"/><path class="cls-1" d="M743.45,134.79h2.33v14.15a15.71,15.71,0,0,0,.14,3.16,5.75,5.75,0,0,0,.83,2.33,3.63,3.63,0,0,0,1.92,1.51,5.58,5.58,0,0,0,2.61.69,4.05,4.05,0,0,0,2.2-.55,5.56,5.56,0,0,0,1.79-1.37,4.86,4.86,0,0,0,1-2.06,18.68,18.68,0,0,0,.27-3.71V134.79h2.34v14.15a18,18,0,0,1-.55,5.08,6.4,6.4,0,0,1-2.34,3.3,6.6,6.6,0,0,1-4.26,1.37,7.55,7.55,0,0,1-4.67-1.37,6.29,6.29,0,0,1-2.61-3.57,20,20,0,0,1-.41-4.95l-.55-14Z"/><path class="cls-1" d="M764.75,134.79h4.53a21.26,21.26,0,0,1,5.22.41,5.3,5.3,0,0,1,3.16,2.06,6.58,6.58,0,0,1,0,7.69,6.75,6.75,0,0,1-3.3,2.06,25.07,25.07,0,0,1-5.77.42h-1.65v10.85h-2.33l.14-23.49Zm2.33,2.33v8h3.85a11.2,11.2,0,0,0,3.43-.41A4.06,4.06,0,0,0,776,143.3a3.84,3.84,0,0,0,0-4.39,3.21,3.21,0,0,0-1.65-1.38,9.65,9.65,0,0,0-3.29-.41Z"/></svg>