<?xml version="1.0" encoding="UTF-8"?><svg id="Layer_1" xmlns="http://www.w3.org/2000/svg" viewBox="0 0 331.2 331.2"><defs><style>.cls-1{fill:#fff;}</style></defs><path class="cls-1" d="m232.46,0H98.68C44.19.06.06,44.19,0,98.68v133.84c.06,54.49,44.19,98.62,98.68,98.68h133.84c54.49-.06,98.62-44.19,98.68-98.68V98.68c-.12-54.49-44.25-98.68-98.74-98.68h0Zm65.39,232.47c0,36.07-29.26,65.33-65.33,65.33H98.68c-36.07,0-65.33-29.26-65.33-65.33h0V98.69c0-36.07,29.26-65.33,65.33-65.33h133.9c36.07,0,65.33,29.26,65.33,65.33l-.06,133.78Z"/><path class="cls-1" d="m165.57,79.95c-47.26,0-85.62,38.41-85.62,85.62s38.41,85.62,85.62,85.62,85.62-38.41,85.62-85.62-38.35-85.62-85.62-85.62Zm0,137.94c-28.9,0-52.32-23.42-52.32-52.32s23.42-52.32,52.32-52.32,52.32,23.42,52.32,52.32-23.42,52.32-52.32,52.32ZM251.37,60.08c11.32,0,20.53,9.21,20.47,20.53-.06,11.32-9.21,20.53-20.53,20.47-11.32,0-20.47-9.21-20.47-20.47s7.71-20.53,20.53-20.53Z"/></svg>