<?xml version="1.0" encoding="UTF-8"?><svg id="Layer_1" xmlns="http://www.w3.org/2000/svg" viewBox="0 0 800 762"><defs><style>.cls-1{fill:#202020;fill-rule:evenodd;}</style></defs><g id="Page-1"><g id="Dribbble-Light-Preview"><g id="icons"><path id="menu_navigation_grid-_1529_" class="cls-1" d="m680,419.1h-120c-66.3,0-120,51.2-120,114.3v114.3c0,63.1,53.7,114.3,120,114.3h120c66.3,0,120-51.2,120-114.3v-114.3c0-63.1-53.7-114.3-120-114.3m-440,0h-120c-66.3,0-120,51.2-120,114.3v114.3c0,63.1,53.7,114.3,120,114.3h120c66.3,0,120-51.2,120-114.3v-114.3c0-63.1-53.7-114.3-120-114.3M680,0h-120c-66.3,0-120,51.2-120,114.3v114.3c0,63.1,53.7,114.3,120,114.3h120c66.3,0,120-51.2,120-114.3v-114.3c0-63.1-53.7-114.3-120-114.3m-320,114.3v114.3c0,63.1-53.7,114.3-120,114.3h-120C53.7,342.9,0,291.7,0,228.6v-114.3C0,51.2,53.7,0,120,0h120c66.3,0,120,51.2,120,114.3"/></g></g></g></svg>